#define net_wifi_none_width 16
#define net_wifi_none_height 16
static unsigned char net_wifi_none_bits[] = {
   0x00, 0x3f, 0x80, 0xfd, 0x80, 0xff, 0x80, 0xff, 0x80, 0xff, 0xc0, 0x0f,
   0xe1, 0x7f, 0xf3, 0x07, 0xff, 0x07, 0xff, 0x1f, 0xfe, 0x17, 0xfc, 0x03,
   0xf8, 0x01, 0x20, 0x01, 0x20, 0x01, 0x60, 0x03 };
