#define power_bat_none_width 16
#define power_bat_none_height 16
static unsigned char power_bat_none_bits[] = {
   0x00, 0x00, 0x00, 0x00, 0x00, 0x00, 0x00, 0x04, 0x00, 0x06, 0x00, 0x7f,
   0x80, 0x07, 0xfc, 0x07, 0xfc, 0x07, 0x80, 0x07, 0x00, 0x7f, 0x00, 0x06,
   0x00, 0x04, 0x00, 0x00, 0x00, 0x00, 0x00, 0x00 };
